<?xml version="1.0" encoding="UTF-8"?>
<svg version="1.1" viewBox="0 0 1600 300" xmlns="http://www.w3.org/2000/svg">
<g transform="matrix(.75 0 0 .75 49.091 8.2004)">
<svg width="2e3" height="378" data-background-color="#ffffff" preserveAspectRatio="xMidYMid" version="1.1" viewBox="0 0 396 75">
<g transform="translate(.24 .013128)">
<svg width="395.52" height="74.974" version="1.1" viewBox="0 0 395.52 74.973743">
<svg width="395.52" height="74.974" version="1.1" viewBox="0 0 512.60699 97.16845">
<g transform="translate(117.09 27.491)">
<svg width="395.52" height="42.187" version="1.1" viewBox="0 0 395.52 42.186719">
<svg width="395.52" height="42.187" version="1.1" viewBox="0 0 395.52 42.186719">
<svg width="395.52" height="42.187" version="1.1" viewBox="0 0 395.52 42.186719">
<svg width="395.52" height="42.187" data-palette-color="#1d597d" version="1.1" viewBox="5.03 -39.11 371.23 39.6">
<path class="wordmark-text-0" d="m11.08 0h-6.05v-35.77h6.05v15.02h17.78v-15.02h6.05v35.77h-6.05v-16.46h-17.78zm39.38 0-9.25-25.88h6.54l5.1 16.9 1.05 4.49h0.49l1-4.49 5.18-16.9h5.59l-9.28 25.88zm34.76-3.81q-0.63 0.54-1.52 1.28-0.89 0.75-1.98 1.42t-2.37 1.13q-1.28 0.47-2.69 0.47-1.45 0-2.68-0.53-1.23-0.52-2.15-1.46-0.91-0.94-1.44-2.25-0.52-1.3-0.52-2.89 0-1.66 0.67-3.25 0.67-1.58 2.25-2.83 1.57-1.24 4.16-2.01t6.39-0.77h1.79v-2q0-1.08-0.37-1.93-0.37-0.86-1.02-1.47-0.66-0.61-1.58-0.93-0.91-0.31-2.04-0.31-0.88 0-1.88 0.2-1 0.21-1.98 0.58-0.97 0.36-1.9 0.86t-1.66 1.09l-0.44-0.24-1.12-4.1q2.95-1.54 5.49-2.08t4.76-0.54q2.3 0 4.09 0.47 1.8 0.46 3.04 1.42 1.25 0.97 1.89 2.45 0.65 1.47 0.65 3.5v11.96q0 0.37 0.06 0.81t0.24 0.83q0.19 0.39 0.54 0.66 0.36 0.27 0.94 0.27 0.34 0 0.83-0.1t0.98-0.32v2.93q-1.32 0.9-2.63 1.44-1.3 0.54-2.55 0.54-0.97 0-1.68-0.37-0.71-0.36-1.2-0.96t-0.82-1.37-0.55-1.6zm-0.09-3.15v-5.66h-1.54q-2.54 0-4.09 0.35-1.55 0.36-2.41 0.98-0.85 0.62-1.13 1.44t-0.28 1.77q0 1 0.29 1.76 0.29 0.75 0.8 1.27 0.5 0.51 1.18 0.78t1.46 0.27q0.59 0 1.22-0.14 0.64-0.13 1.34-0.47 0.69-0.35 1.47-0.91t1.69-1.44zm14.79 6.96v-25.88h4.78l0.83 7.72q0.35-0.64 0.71-1.31 0.37-0.67 0.73-1.29 0.37-0.63 0.69-1.14t0.54-0.85q0.51-0.76 1.16-1.43 0.64-0.67 1.4-1.15t1.63-0.76q0.88-0.28 1.91-0.28 0.71 0 1.42 0.17 0.7 0.17 1.19 0.54l-0.63 5.45q-0.44-0.13-1.03-0.16-0.58-0.04-1.05-0.04-1.56 0-2.78 0.45t-2.21 1.25q-0.99 0.79-1.81 1.86-0.82 1.08-1.57 2.32v14.53zm54.34-5.32v2.95q-1.07 0.76-2.32 1.3-1.24 0.53-2.56 0.89-1.32 0.35-2.63 0.51-1.3 0.16-2.48 0.16-2.71 0-5.04-0.83t-4.05-2.44-2.7-3.97q-0.97-2.36-0.97-5.41 0-3.25 1.09-5.88 1.1-2.64 2.95-4.48 1.84-1.85 4.27-2.85t5.06-1q2.2 0 4.09 0.72 1.9 0.72 3.28 2.14t2.16 3.54 0.78 4.93q0 0.68-0.06 1.45t-0.21 1.51h-17.29q0 1.97 0.7 3.49 0.7 1.51 1.97 2.52 1.26 1.02 3.05 1.54 1.78 0.53 3.93 0.53 0.61 0 1.43-0.05 0.81-0.05 1.74-0.2 0.93-0.14 1.91-0.4 0.97-0.26 1.9-0.67zm-16.63-9.65h12.06q0-1.78-0.45-3.12t-1.23-2.25q-0.78-0.9-1.82-1.35t-2.23-0.45q-1.35 0-2.49 0.53-1.15 0.54-2 1.51-0.86 0.96-1.35 2.28t-0.49 2.85zm24.32 14.97v-25.88h4.78l0.83 7.72q0.34-0.64 0.71-1.31t0.73-1.29q0.37-0.63 0.69-1.14 0.31-0.51 0.53-0.85 0.52-0.76 1.16-1.43 0.65-0.67 1.41-1.15 0.75-0.48 1.63-0.76t1.91-0.28q0.71 0 1.41 0.17 0.71 0.17 1.2 0.54l-0.63 5.45q-0.44-0.13-1.03-0.16-0.59-0.04-1.05-0.04-1.56 0-2.78 0.45t-2.21 1.25q-0.99 0.79-1.81 1.86-0.82 1.08-1.57 2.32v14.53zm35.37-7.15v-14.51h-5.2l0.44-2.78q1.93-0.49 3.09-1.1t1.93-1.5q0.76-0.89 1.34-2.17 0.57-1.28 1.33-3.11h2.83v6.44h9.3l-1.05 4.22h-8.08v13.33q0 1.2 0.34 2.02 0.35 0.82 0.98 1.33t1.53 0.74q0.89 0.24 2.01 0.24 1.07 0 2.14-0.2 1.06-0.19 2.01-0.56v2.98q-1.66 1.12-3.55 1.69-1.89 0.58-3.82 0.58-3.69 0-5.63-2-1.94-2.01-1.94-5.64zm31.95 7.64q-3.05 0-5.38-1.03-2.33-1.02-3.92-2.77-1.58-1.74-2.4-4.04-0.82-2.29-0.82-4.86 0-2.95 1.05-5.53 1.05-2.57 2.94-4.49t4.51-3.03q2.61-1.11 5.73-1.11 3.06 0 5.4 1.03 2.34 1.02 3.93 2.78t2.4 4.07q0.82 2.3 0.82 4.87 0 2.98-1.06 5.55-1.06 2.58-2.97 4.48-1.9 1.91-4.51 2.99-2.62 1.09-5.72 1.09zm1.03-4.23q1.56 0 2.86-0.64 1.29-0.65 2.22-1.81t1.44-2.77 0.51-3.56q0-1.91-0.5-3.64-0.5-1.74-1.45-3.07t-2.32-2.12-3.1-0.79q-1.59 0-2.88 0.66-1.3 0.65-2.21 1.83-0.92 1.17-1.43 2.79-0.51 1.63-0.51 3.55 0 1.93 0.5 3.67 0.5 1.73 1.45 3.05t2.32 2.09q1.37 0.76 3.1 0.76zm19.82 3.74v-25.88h4.79l0.83 4.42q0.85-0.78 1.93-1.65 1.07-0.86 2.34-1.58 1.27-0.73 2.67-1.2 1.41-0.48 2.92-0.48 1.78 0 3.23 0.67 1.46 0.68 2.48 1.88 1.03 1.21 1.59 2.9 0.56 1.68 0.56 3.68v17.24h-5.93v-16.53q0-1.32-0.37-2.32-0.36-1-1.01-1.66t-1.54-1-1.92-0.34q-1.8 0-3.41 0.93-1.61 0.92-3.25 2.44v18.48zm31.49 0v-39.11h5.91v39.11zm14.04 0v-25.88h5.93v25.88zm2.95-30.98q-0.78 0-1.43-0.26-0.64-0.25-1.12-0.69-0.47-0.44-0.73-1.05t-0.26-1.32q0-0.73 0.28-1.36 0.28-0.62 0.78-1.1 0.51-0.47 1.18-0.74t1.45-0.27q0.76 0 1.39 0.27 0.64 0.27 1.1 0.72t0.73 1.07q0.27 0.63 0.27 1.33 0 0.74-0.28 1.36t-0.78 1.07q-0.5 0.46-1.16 0.71-0.66 0.26-1.42 0.26zm9.55 29.76 1.05-4.44 0.44-0.27q0.95 0.51 1.99 0.93 1.03 0.41 2.06 0.69 1.02 0.28 2 0.43 0.98 0.14 1.83 0.14 2.22 0 3.48-0.92 1.26-0.93 1.26-2.37 0-0.98-0.58-1.61-0.57-0.64-1.51-1.09t-2.14-0.79q-1.19-0.34-2.45-0.72t-2.45-0.87q-1.2-0.49-2.14-1.24-0.94-0.76-1.51-1.85-0.58-1.08-0.58-2.67 0-1.78 0.77-3.35 0.77-1.56 2.2-2.69 1.43-1.14 3.47-1.8 2.03-0.66 4.57-0.66 0.64 0 1.48 0.05t1.76 0.16q0.91 0.11 1.84 0.28t1.74 0.44l-1.08 4.37-0.54 0.32q-0.73-0.37-1.57-0.64t-1.69-0.42q-0.84-0.16-1.63-0.25-0.79-0.08-1.4-0.08-2.15 0-3.36 0.85-1.21 0.86-1.21 2.3 0 1 0.59 1.64 0.58 0.65 1.52 1.1t2.16 0.78 2.48 0.71 2.48 0.87 2.16 1.24q0.94 0.76 1.52 1.86 0.59 1.1 0.59 2.71 0 1.81-0.78 3.38t-2.22 2.72-3.47 1.81-4.49 0.66q-2.03 0-4.3-0.44t-4.34-1.27zm28.31-5.93v-14.51h-5.2l0.44-2.78q1.93-0.49 3.09-1.1t1.93-1.5 1.34-2.17q0.58-1.28 1.33-3.11h2.84v6.44h9.3l-1.05 4.22h-8.08v13.33q0 1.2 0.34 2.02t0.98 1.33q0.63 0.51 1.52 0.74 0.89 0.24 2.02 0.24 1.07 0 2.13-0.2 1.06-0.19 2.02-0.56v2.98q-1.66 1.12-3.56 1.69-1.89 0.58-3.82 0.58-3.68 0-5.63-2-1.94-2.01-1.94-5.64zm29.05-24.83q-0.65 0-1.52 0.13-0.87 0.14-1.86 0.47t-2.06 0.86q-1.07 0.54-2.12 1.32l-0.39-0.22-1.18-4.08q2.79-1.49 5.4-2.12t5.13-0.63q2.41 0 4.18 0.51t2.92 1.43q1.15 0.91 1.7 2.16 0.55 1.24 0.55 2.68 0 1.76-0.7 3.08t-1.76 2.44-2.28 2.14q-1.22 1.01-2.28 2.12t-1.76 2.45q-0.7 1.35-0.7 3.1 0 0.27 0 0.6t0.05 0.6h-4.27q-0.12-0.54-0.18-1.02-0.06-0.49-0.06-1.08 0-1.78 0.57-3.16t1.45-2.52q0.88-1.13 1.88-2.08t1.88-1.85q0.88-0.89 1.45-1.8 0.58-0.92 0.58-1.97 0-0.83-0.37-1.49-0.36-0.66-1-1.12-0.63-0.46-1.46-0.71-0.83-0.24-1.79-0.24zm-0.68 32.47q-0.85 0-1.6-0.33-0.74-0.33-1.29-0.88t-0.87-1.29q-0.32-0.75-0.32-1.58 0-0.85 0.33-1.62t0.89-1.35q0.57-0.57 1.31-0.9 0.75-0.33 1.6-0.33t1.6 0.33q0.74 0.33 1.29 0.9 0.55 0.58 0.87 1.34 0.32 0.75 0.32 1.58 0 0.86-0.33 1.6-0.33 0.75-0.89 1.31-0.57 0.56-1.31 0.89t-1.6 0.33z" fill="#1d597d" data-fill-palette-color="primary"/>
</svg>
</svg>
</svg>
</svg>
</g>
<svg width="97.168" height="97.168" version="1.1" viewBox="0 0 97.16845 97.16845">
<svg version="1.1"/>
<svg width="97.168" height="97.168" version="1.1" viewBox="0 0 97.16845 97.16845">
<path d="m0 48.584c0-26.832 21.752-48.584 48.584-48.584s48.584 21.752 48.584 48.584-21.752 48.584-48.584 48.584-48.584-21.752-48.584-48.584zm48.584 44.78c24.731 0 44.78-20.049 44.78-44.78s-20.049-44.78-44.78-44.78-44.78 20.049-44.78 44.78 20.049 44.78 44.78 44.78z" fill="#83b6b9" stroke="transparent" data-fill-palette-color="accent"/>
<g transform="translate(28.002 25.562)">
<svg width="41.165" height="46.044" version="1.1" viewBox="0 0 41.16469 46.044269">
<svg class="icon-cg-0" width="41.165" height="46.044" enable-background="new 0 0 100 100" data-fill-palette-color="accent" version="1.1" viewBox="18.134 19.196 56.111639 62.763" xml:space="preserve"><path d="m74.245 21.972c0-1.518-1.231-2.749-2.75-2.749l-36.412-0.027c-1.519 0-2.748 1.231-2.748 2.749v37.964c-0.949-0.263-1.947-0.399-2.979-0.399-6.198 0-11.222 5.024-11.222 11.223s5.024 11.226 11.222 11.226c6.046 0 11.215-4.677 11.215-10.769 7e-3 -0.073 0.022-30.853 0.022-30.853 0.01-0.791 0.651-1.429 1.445-1.429l-1e-3 -1e-3 22.602 0.01c0.759 0.045 1.361 0.668 1.361 1.438l5e-3 -0.017v17.051c-0.948-0.262-1.946-0.397-2.978-0.397-6.198 0-11.226 5.022-11.226 11.223 0 6.198 5.025 11.226 11.226 11.226 6.045 0 10.974-4.78 11.214-10.769 7e-3 -0.074 4e-3 -46.7 4e-3 -46.7z" fill="#83b6b9" data-fill-palette-color="accent"/></svg>
</svg>
</g>
</svg>
</svg>
</svg>
</svg>
<rect width="395.52" height="74.974" fill="none" visibility="hidden"/>
</g>
</svg>
</g>
</svg>
